<?xml version="1.0" standalone="no"?><!DOCTYPE svg PUBLIC "-//W3C//DTD SVG 1.1//EN" "http://www.w3.org/Graphics/SVG/1.1/DTD/svg11.dtd"><svg t="1739942614268" class="icon default_cursor_cs" viewBox="0 0 1024 1024" version="1.1" xmlns="http://www.w3.org/2000/svg" p-id="20084" xmlns:xlink="http://www.w3.org/1999/xlink" width="200" height="200"><path d="M600.758801 302.575484c-2.75489 2.999329-5.357832 6.44129-7.795613 10.173935l34.313909 20.215742a32.596232 32.596232 0 0 1 9.149936-10.524077c5.086968-3.785497 13.093987-7.623845 24.443871-7.48511l11.422555-41.957574c-25.348955-1.109884-53.888826 10.35231-71.547871 29.596903l0.013213-0.019819zM574.954001 377.281239c0.594581 7.333161 2.77471 17.229626 9.724696 22.71298 9.414194 7.399226 18.709471 6.877316 29.326039-1.658219 6.388439-5.153032 6.632877-17.038039 6.890529-29.629935 0.033032-1.810168 0.079277-3.633548 0.138736-5.496568l-40.616465-23.915355c-4.261161 12.942039-6.395045 26.478658-5.463535 37.967277v0.01982zM713.53093 347.823071l37.101832-11.072413c-10.887432-28.513445-28.586116-46.575484-48.359226-56.049135l-11.666994 42.856051c8.370374 5.067148 16.350968 12.770271 22.924388 24.265497zM728.349201 397.437523h33.428645a219.578632 219.578632 0 0 0-3.455175-32.933162l-34.194993 10.200362a174.542452 174.542452 0 0 1 4.221523 22.726193zM729.50533 451.352774l29.002322 1.235407c1.288258-9.268852 2.186735-18.11489 2.75489-26.577755h-31.116387a359.556129 359.556129 0 0 1-0.640825 25.348955z" fill="#FFFFFF" p-id="20085"></path><path d="M730.139549 426.010426h31.116387c0.673858-10.081445 0.825806-19.607948 0.535123-28.572903h-33.428646c1.050426 8.628026 1.671432 18.128103 1.796955 28.572903h-0.019819zM724.127678 374.704723l34.194993-10.200362a160.431071 160.431071 0 0 0-7.689909-27.747096L713.53093 347.816465c4.18849 7.319948 7.808826 16.185806 10.596748 26.888258zM690.606542 323.557574l11.660388-42.856051a83.24129 83.24129 0 0 0-18.432-6.289342 68.508903 68.508903 0 0 0-11.561291-1.426994l-11.415948 41.950968a56.993858 56.993858 0 0 1 11.78591 1.4336 60.330116 60.330116 0 0 1 17.949729 7.168l0.013212 0.019819zM580.404323 339.294142l40.616465 23.915355c0.31711-10.438194 1.275045-21.312413 6.256309-30.257549l-34.313909-20.215742c-5.100181 7.835252-9.407587 17.031432-12.545652 26.557936h-0.013213z" fill="#FFDAA4" p-id="20086"></path><path d="M651.958801 347.730581l0.693677 0.165161-0.640826-0.376568-0.059458 0.211407z" fill="#000000" p-id="20087"></path><path d="M993.129175 823.38849l-0.118916-0.132129c-2.2528-2.470813-7.28031-9.249032-18.319691-24.087122-11.792516-15.855484-18.299871-24.602426-24.186219-37.987097-3.567484-8.07969-5.694761-12.922219-7.016052-20.149677-1.387355-7.597419-1.314684-14.705961-1.268438-20.433755 0.033032-3.805316 0.105703-10.880826-1.017394-11.627355a6.480929 6.480929 0 0 0-2.926658-0.977755 4.789677 4.789677 0 0 0-2.464206 0.918297c-2.391535 1.453419-3.151277 4.135639-3.375897 5.232309-0.138735 0.660645-0.396387 1.255226-0.700284 1.796955a188.660439 188.660439 0 0 1-19.779716 49.416258 6.091148 6.091148 0 1 1-10.563716-6.058116 176.590452 176.590452 0 0 0 19.515458-50.618632c2.484026-18.068645 3.012542-36.368516 1.519484-54.423948l-0.066065-0.865446c-0.792774-9.6256-1.770529-21.404903-4.069574-34.419612-16.397213-6.183639-32.834065-9.394374-46.37729-1.559123-16.08671 9.315097-10.880826 24.298529-27.396955 33.560774-28.044387 15.703535-85.143948-3.858168-111.63582-41.019458-26.670245-37.399123-19.667406-88.982297 8.284491-120.448826 7.749368-8.720516 16.938942-15.65729 27.086451-21.034942-55.956645-12.010529-102.703897 1.532697-126.196438 11.065807-21.008516 8.50911-39.744413 20.096826-56.141626 34.604593a44.771923 44.771923 0 0 1 6.487535 26.505084c-1.512877 18.795355-16.350968 31.783639-31.195664 35.608774a35.846606 35.846606 0 0 1-8.832826 1.169342 29.927226 29.927226 0 0 1-2.616155-0.118916 35.562529 35.562529 0 0 1-10.385342-2.563303 186.916335 186.916335 0 0 0-15.908335 43.906477c20.281806 2.041394 40.3456 6.091148 59.755354 12.056775 13.675355-2.840774 27.681032-4.5056 41.633859-4.928413a240.739097 240.739097 0 0 1 64.036335 6.692335 6.124181 6.124181 0 0 1 4.340439 7.841858 125.938787 125.938787 0 0 1-25.064878 43.73471 133.628697 133.628697 0 0 1-18.676438 17.559948c6.897135 7.656877 18.801961 23.168826 24.047483 43.866839 4.80289 18.848206 2.807742 46.449961 2.715252 47.62591a6.091148 6.091148 0 1 1-12.149264-0.918297c0.013213-0.257652 1.93569-26.756129-2.358504-43.701678-0.528516-2.074426-1.142916-4.082787-1.796954-6.03169-14.520981-5.813677-29.246761-9.757729-42.109523-6.177032-2.675613 0.739923-5.285161 1.810168-7.795613 3.256981-16.08671 9.315097-10.880826 24.291923-27.403561 33.547561-28.037781 15.716748-85.143948-3.851561-111.629213-41.006245-21.814503-30.601084-21.101006-70.656-4.82271-101.455278-4.862348 0.568155-9.685058 1.255226-14.468129 2.133884a215.04 215.04 0 0 0-29.273187 7.551174 6.097755 6.097755 0 0 1-3.864774-11.541471 228.186839 228.186839 0 0 1 40.854297-9.579354 106.38369 106.38369 0 0 1 10.722271-34.763149c-3.243768 0.151948-6.454503 0.469058-9.6256 0.990968-22.072155 3.560877-36.579923 15.161806-50.618633 26.392774-19.528671 15.617652-31.407071 30.858735-40.946787 43.10049-11.098839 14.250116-21.576671 27.681032-28.731458 42.941936-8.799794 18.775535-16.747355 50.374194-4.717006 94.30049a5.998658 5.998658 0 0 1-0.264258 3.957265c-3.316439 8.007019-10.801548 31.737394-5.536207 45.122064 4.386684 11.125265 19.594735 19.588129 45.227768 25.150762a609.445161 609.445161 0 0 0 88.797316 8.733729c27.192155 0.660645 61.037006 1.479845 103.12671-7.471897 3.2768-0.700284 6.546994-1.453419 9.803974-2.239587-12.420129-2.642581-25.038452-4.029935-37.630348-4.142245-6.322374-0.270865-5.813677-9.559535 0.528516-9.116904 15.895123 1.671432 31.559019 5.331406 46.509419 10.834581a347.102968 347.102968 0 0 0 20.876387-6.342194 177.872103 177.872103 0 0 0-17.051251-5.298374 187.372181 187.372181 0 0 0-45.28062-5.925987c-6.315768-0.270865-5.813677-9.559535 0.535123-9.116903a192.049548 192.049548 0 0 1 65.509574 19.059613l2.444387-0.852232a6.289342 6.289342 0 0 1 3.402323-0.211407c0.224619 0.046245 13.939613 3.091819 37.769083 5.787252 1.585548-9.823794 6.632877-20.585703 13.563046-29.035355 11.825548-14.402065 27.96511-20.678194 41.224258-20.519639 6.044903 0.066065 11.495226 1.446813 15.663896 4.00351 15.822452 9.678452 15.06271 37.0688 9.090478 49.521961 41.224258-1.109884 54.153084-9.149935 55.157264-9.817187 0.621006-0.548335 1.32129-0.924903 2.048-1.156129a6.315768 6.315768 0 0 1 1.922478-1.889445c0.105703-0.066065 11.706632-7.234065 26.049239-21.285987 10.306065-10.088052 5.892955-16.185806 5.357832-16.833239a5.62209 5.62209 0 0 1-1.611974-4.723613c0.165161-1.810168 1.308077-3.283406 2.814348-4.307406 1.109884-0.759742 4.809497-3.560877 5.509781-8.00702 0.138735-0.898477 0.581368-3.653368-1.169342-6.421471-0.277471-0.442632-2.834168-4.307406-7.861678-4.888774a11.924645 11.924645 0 0 0-6.32898 1.083458 6.091148 6.091148 0 0 1-8.674271-5.238916 3.052181 3.052181 0 0 0-1.083458-2.206555c-1.037213-0.858839-2.906839-1.374142-4.340439-0.660645a2.583123 2.583123 0 0 0-1.453419 1.889445c0.2048 1.142916 0.251045 2.014968 0.251045 2.404749a6.077935 6.077935 0 0 1-5.219097 6.170425 6.071329 6.071329 0 0 1-6.745187-4.446142 13.985858 13.985858 0 0 1-0.462452-2.728464 4.584877 4.584877 0 0 0-1.942297-2.536877c-0.231226-0.138735-2.266013-1.374142-4.016722-0.792775-1.453419 0.469058-2.444387 2.021574-2.411355 3.792104a5.972232 5.972232 0 0 1-0.924903 3.303225c0.350142 0.455845 0.713497 0.878658 1.063639 1.354323a49.185032 49.185032 0 0 1 6.7584 12.889187 6.077935 6.077935 0 1 1-11.495226 3.990297 37.194323 37.194323 0 0 0-5.086968-9.711484c-9.374555-12.816516-22.448723-17.2032-37.59071-22.270348-10.451406-3.488206-21.226529-7.108542-31.532593-13.873549-10.874219-7.121755-16.595406-19.971303-16.106529-36.183535a6.091148 6.091148 0 1 1 12.17569 0.363355c-0.198194 6.837677 0.898477 19.277626 10.609961 25.633032 8.984774 5.899561 19.019974 9.262245 28.731458 12.506013 11.204542 3.759071 22.679948 7.623845 32.589626 15.326967a15.5648 15.5648 0 0 1 9.447226-8.720516c6.494142-2.147097 12.129445 0.700284 14.256723 2.008362 0.290684 0.184981 0.561548 0.363355 0.825806 0.548335 0.865445-0.713497 1.836594-1.354323 2.873806-1.869626 6.395045-3.18431 13.397884-1.222194 17.493884 2.140491 1.446813 1.189161 2.523665 2.510452 3.316439 3.825135 1.93569-0.323716 4.109213-0.429419 6.454503-0.151948 10.458013 1.202374 15.802632 8.964955 16.760568 10.504258 1.902658 3.012542 3.944052 8.033445 2.893626 14.778632-0.878658 5.602271-3.712826 9.757729-6.395045 12.558865 2.470813 6.672516 2.147097 17.024826-9.182968 28.136877a199.779097 199.779097 0 0 1-20.744258 17.810994c9.070658 1.869626 23.003665 3.818529 40.629677 3.316438 31.380645-0.852232 57.337394-24.536361 57.595045-24.7808a6.091148 6.091148 0 0 1 7.134968-0.839019 166.39009 166.39009 0 0 0 37.861574 15.591226c0.290684 0.072671 29.927226 7.973987 51.246246 1.446813 3.395716-1.037213 5.040723-2.285832 5.437109-3.105033 0.455845-0.944723 0.105703-2.36511-0.310503-3.626942-2.16031-6.593239-6.632877-13.642323-13.305394-20.942451h0.033033z m-638.06431 13.933007c-12.895794 0-23.340594-5.5296-23.340594-12.347458s10.438194-12.347458 23.340594-12.347458c12.889187 0 23.333987 5.5296 23.333987 12.354064 0 6.811252-10.438194 12.340852-23.333987 12.340852z m18.52449-35.65502c-12.056774 0-21.814503-11.158297-21.814503-24.932748 0-13.781058 9.777548-24.939355 21.814503-24.939355 7.333161 0 13.807484 4.142245 17.771355 10.491045a11.039381 11.039381 0 0 0-4.571664-0.924903c-4.062968 0-7.352981 1.869626-7.352981 4.181884 0 2.312258 3.290013 4.18849 7.352981 4.18849 3.18431 0 5.859923-1.162735 6.897135-2.774709 1.109884 2.999329 1.737497 6.289342 1.737497 9.757729 0 13.761239-9.777548 24.939355-21.82111 24.939355l-0.013213 0.013212z m40.874116 9.103691l-1.995148 13.477161 8.707303 7.881497c0.93151 0.858839 1.010787 2.285832 0.171768 3.230555a2.299045 2.299045 0 0 1-3.230555 0.151948l-7.504929-6.791432c-2.906839 1.704465-6.302555 3.726039-6.73858 4.049755a2.299045 2.299045 0 0 1-3.18431-0.528517 2.259406 2.259406 0 0 1 0.488877-3.157883c0.621006-0.469058 5.747613-3.488206 8.251458-4.948233l2.034787-13.787664q0.019819-0.033032 0.01982-0.066065a10.676026 10.676026 0 0 1-2.669007-1.506271c-2.378323-1.763923-4.888774-3.633548-4.657548-5.780645 0.303897-2.847381 5.252129-4.796284 9.136723-4.842529 4.076181-0.033032 9.130116 2.041394 9.394374 4.842529 0.198194 2.186735-2.635974 3.98369-6.3488 6.328981a9.850219 9.850219 0 0 1-1.902658 0.977755 1.823381 1.823381 0 0 1 0.026425 0.50209v-0.033032z m42.340749-32.867097c0-13.761239 9.777548-24.939355 21.814503-24.939355 8.462865 0 15.789419 5.516387 19.409755 13.569652a10.986529 10.986529 0 0 0-4.690581-0.990968c-4.062968 0-7.352981 1.869626-7.35298 4.18849 0 2.312258 3.290013 4.181884 7.35298 4.181884 2.77471 0 5.159639-0.878658 6.408258-2.180129 0.442632 1.968723 0.700284 4.029935 0.700284 6.144 0 13.761239-9.777548 24.932748-21.814503 24.932749-12.043561 0-21.814503-11.164903-21.814503-24.939355l-0.013213 0.033032z m51.001806 65.932387c-12.9024 0-23.340594-5.522994-23.340593-12.347458 0-6.817858 10.438194-12.347458 23.333987-12.347458s23.340594 5.5296 23.340593 12.354064c0 6.817858-10.438194 12.340852-23.340593 12.340852z m37.782297-11.250787c-6.25631 0.977755-7.597419-8.218426-1.294864-9.044232 31.889342-3.038968 64.135432 1.876232 92.985806 14.005677a188.779355 188.779355 0 0 0-91.697548-4.954839z" fill="#FFFFFF" p-id="20088" class="default_pointer_cs"></path><path d="M741.132684 489.472c-27.94529 31.473135-34.948129 83.043097-8.277883 120.455432 26.491871 37.141471 83.604645 56.703174 111.629212 41.012852 16.516129-9.255639 11.316852-24.239071 27.403562-33.560774 13.536619-7.835252 29.980077-4.624516 46.37729 1.559122-4.664155-26.293677-14.798452-57.621471-40.054916-86.544516-15.04289-17.236232-48.246916-48.213884-101.46849-61.948697a207.706839 207.706839 0 0 0-8.522323-1.995148c-10.140903 5.377652-19.337084 12.321032-27.086452 21.041548v-0.013213zM471.008091 732.021265c26.491871 37.141471 83.604645 56.703174 111.635819 41.012851 16.516129-9.255639 11.310245-24.239071 27.403561-33.560774 2.490632-1.440206 5.093574-2.510452 7.795613-3.250374 12.862761-3.580697 27.581935 0.363355 42.102917 6.177032-7.656877-22.455329-23.585032-36.916852-23.763407-37.062194a6.058116 6.058116 0 0 1-2.008361-4.908593 6.05151 6.05151 0 0 1 2.602942-4.624516 122.219355 122.219355 0 0 0 22.243922-19.839174 114.536052 114.536052 0 0 0 16.271691-24.113549 84.89951 84.89951 0 0 1-38.528826 14.752207c-3.336258 0.396387-6.685729 0.594581-10.048413 0.59458-4.901987 0-9.823794-0.429419-14.725781-1.268438a6.084542 6.084542 0 1 1 2.06782-11.997317c7.101935 1.222194 14.256723 1.420387 21.259561 0.581368a72.822916 72.822916 0 0 0 34.31391-13.576258 229.442065 229.442065 0 0 0-44.395355-3.032361 228.226477 228.226477 0 0 0-41.026065 4.994477 6.144 6.144 0 0 1-3.105032-0.132129 296.021884 296.021884 0 0 0-65.384052-12.624929h-0.171767a298.91551 298.91551 0 0 0-41.448878-0.317109c-2.649187 0.211406-5.285161 0.455845-7.901316 0.759741-16.278297 30.792671-16.991794 70.847587 4.82271 101.448671l-0.013213-0.013212zM724.781717 814.443355c-4.168671-2.563303-9.618994-3.944052-15.657291-4.010116-13.265755-0.132129-29.372284 6.137394-41.197832 20.526245-6.943381 8.443045-11.997316 19.224774-13.569652 29.041961 16.185806 1.829987 37.009342 3.521239 61.44 4.00351 6.566813 0.138735 12.565471 0.105703 18.075252-0.046245 5.965626-12.453161 6.731974-39.836903-9.090477-49.521962zM552.346723 577.377445a35.939097 35.939097 0 0 0 8.826219-1.169342c14.844697-3.825135 29.689394-16.806813 31.195665-35.608774a44.791742 44.791742 0 0 0-6.487536-26.505084c-17.487277 15.465703-32.318761 34.267665-44.316077 56.326607-0.759742 1.413781-1.486452 2.840774-2.219768 4.261161a34.967948 34.967948 0 0 0 13.001497 2.682219v0.013213z" fill="#FFDAA4" p-id="20089"></path><path d="M1002.127162 815.183277l-0.118916-0.132129c-1.849806-2.014968-7.412439-9.51329-17.540129-23.1424-12.116232-16.304723-17.685471-23.994632-22.84511-35.701264-3.382503-7.67009-5.086968-11.534865-6.150606-17.355149-1.175948-6.454503-1.123097-12.651355-1.070246-18.128103 0.09249-9.0112 0.171768-17.526916-6.513961-21.920206a18.273445 18.273445 0 0 0-10.015381-2.986116 16.562374 16.562374 0 0 0-3.336258 0.469058c1.189161-14.355819 1.202374-28.771097 0.033033-43.047639l-0.079278-0.872052c-2.510452-30.568052-6.698942-81.721806-47.08418-128-15.9744-18.299871-51.2-51.166968-107.605884-65.734193a227.090168 227.090168 0 0 0-6.560207-1.585549c18.564129-127.966968-32.087535-185.971613-86.194374-197.526296-33.204026-7.088723-73.305187 6.381832-97.491406 32.74818-19.244594 20.98209-32.04129 58.05089-29.762065 86.227407 1.202374 14.85791 6.560206 26.425806 15.478916 33.448464 15.029677 11.825548 32.173419 11.204542 48.273342-1.750709 11.937858-9.592568 12.254968-25.652852 12.578684-41.18462 0.290684-14.289755 0.561548-27.793342 9.407587-34.373367 6.011871-4.472568 14.01889-5.615484 23.783226-3.408929 42.215226 9.546323 48.028903 69.367742 44.923871 120.49507-33.422039 1.400568-60.422606 9.863432-76.773574 16.502917-46.132852 18.696258-81.986065 51.120723-106.581884 96.394735a198.840981 198.840981 0 0 0-19.687226 53.010168 309.921858 309.921858 0 0 0-24.675097-0.475665 6.038297 6.038297 0 0 0-1.294864-0.151948h-0.165162a231.159742 231.159742 0 0 0-12.975071 0.720103h-0.132129c0.898477-5.589058 2.312258-11.118658 4.214917-16.489703a97.511226 97.511226 0 0 1 9.546322-19.594736 6.097755 6.097755 0 0 0-4.717006-9.328309 98.667355 98.667355 0 0 0-22.369445 0.990968c-25.223432 4.062968-41.726348 17.262658-56.280362 28.903225-20.638555 16.516129-33.019045 32.384826-42.961755 45.141884-11.006348 14.124594-22.409084 28.738065-30.125419 45.254194-9.526503 20.347871-18.207381 54.232361-5.965626 100.708748a130.97951 130.97951 0 0 0-5.040722 16.687897c-31.724181-2.95969-63.78529 1.981935-92.496929 14.045316a189.076645 189.076645 0 0 1 90.838709-5.126606c-0.184981 1.308077-0.350142 2.642581-0.475664 3.990296a193.357626 193.357626 0 0 0-44.401962 10.471226 184.709781 184.709781 0 0 0-41.561187 21.470968c26.194581-14.560619 55.897187-22.356232 85.679071-22.964026 0.085884 2.556697 0.363355 5.073755 0.832413 7.524748a192.578065 192.578065 0 0 0-39.367845 9.8304 184.676748 184.676748 0 0 0-41.554581 21.470968c25.6-14.236903 54.556077-21.999484 83.664104-22.91778 6.817858 14.236903 24.239071 24.206039 53.148903 30.462348l0.237832 0.046245a620.603458 620.603458 0 0 0 90.706581 8.938529c7.610632 0.178374 15.723355 0.376568 24.384413 0.376568 23.036697 0 49.964594-1.400568 81.569858-8.125936a372.23391 372.23391 0 0 0 30.08578-7.729548c9.539716 3.362684 18.828387 7.518142 27.747097 12.466374a181.842581 181.842581 0 0 0-23.545393-13.767845c3.98369-1.255226 7.960774-2.56991 11.891613-3.957264 8.291097 1.717677 44.725677 8.6016 99.935793 9.711483 49.944774 0.977755 70.821161-6.7584 78.022194-10.609961 7.016052 2.147097 26.201187 7.022658 54.199329 6.25631 29.299613-0.792774 53.492439-18.081858 62.160103-25.130942a177.568206 177.568206 0 0 0 36.883819 14.666322c1.354323 0.356748 33.309729 8.91871 58.017858 1.334504 6.395045-1.962116 10.702452-5.113394 12.803304-9.381162 2.708645-5.509781 0.924903-10.986529 0.330322-12.783483-2.688826-8.258065-8.033445-16.780387-15.875303-25.381988h0.013213z m4.617909 32.781213c-0.416206 0.8192-2.048 2.067819-5.437109 3.105033-21.312413 6.527174-50.955561-1.374142-51.239639-1.45342a165.907819 165.907819 0 0 1-37.861574-15.584619 6.104361 6.104361 0 0 0-7.141574 0.839019c-0.264258 0.244439-26.2144 23.928568-57.595045 24.7808-17.626013 0.50209-31.559019-1.446813-40.629678-3.316438a199.779097 199.779097 0 0 0 20.744258-17.810994c11.343277-11.112052 11.666994-21.451148 9.182968-28.136877 2.695432-2.801135 5.5296-6.956594 6.395045-12.552259 1.057032-6.751794-0.990968-11.759484-2.893626-14.785238-0.957935-1.539303-6.315768-9.301884-16.760567-10.504258a23.089548 23.089548 0 0 0-6.454504 0.151948 14.877729 14.877729 0 0 0-3.316438-3.825135c-4.096-3.362684-11.085626-5.3248-17.493884-2.140491a14.83809 14.83809 0 0 0-2.873807 1.869626c-0.264258-0.184981-0.548335-0.363355-0.825806-0.548335-2.114065-1.32129-7.749368-4.155458-14.269936-2.008362a15.5648 15.5648 0 0 0-9.434013 8.720516c-9.896465-7.716335-21.371871-11.58111-32.589625-15.326967-9.698271-3.243768-19.733471-6.606452-28.731458-12.499407-9.711484-6.362013-10.821368-18.801961-10.609962-25.633032a6.091148 6.091148 0 1 0-12.17569-0.369961c-0.488877 16.199019 5.23231 29.048568 16.106529 36.183535 10.306065 6.765006 21.101006 10.372129 31.525987 13.873549 15.148594 5.067148 28.222761 9.447226 37.603923 22.270348 2.16031 2.953084 3.864774 6.210065 5.086967 9.711484a6.091148 6.091148 0 1 0 11.495226-3.990297 49.191639 49.191639 0 0 0-6.765006-12.889187c-0.350142-0.475665-0.700284-0.898477-1.063639-1.354323a6.097755 6.097755 0 0 0 0.924903-3.303225c-0.026426-1.75071 0.964542-3.303226 2.404749-3.792104 1.737497-0.594581 3.792103 0.640826 4.023329 0.792775 1.123097 0.700284 1.691252 1.717677 1.948903 2.536877 0.059458 0.918297 0.211406 1.829987 0.455845 2.728464a6.104361 6.104361 0 0 0 6.738581 4.446142c3.052181-0.442632 5.285161-3.091819 5.225703-6.163819 0-0.416206-0.066065-1.281652-0.264258-2.411355a2.536877 2.536877 0 0 1 1.466632-1.882838c1.4336-0.720103 3.303226-0.198194 4.340439 0.654038a3.118245 3.118245 0 0 1 1.076851 2.206555 6.091148 6.091148 0 0 0 8.680878 5.238916c1.156129-0.548335 3.501419-1.420387 6.335587-1.083458 5.020903 0.581368 7.564387 4.426323 7.855071 4.888774 1.73089 2.77471 1.308077 5.509781 1.169342 6.421471-0.700284 4.446142-4.399897 7.267097-5.509781 8.00702-1.506271 1.024-2.635974 2.484026-2.814348 4.307406a5.562632 5.562632 0 0 0 1.611974 4.723613c0.528516 0.654039 4.948232 6.738581-5.357832 16.833239-14.342606 14.051923-25.943535 21.20671-26.049239 21.285987a5.978839 5.978839 0 0 0-1.915871 1.889445 5.371045 5.371045 0 0 0-2.054606 1.156129c-1.010787 0.667252-13.933006 8.707303-55.163871 9.817187-5.503174 0.151948-11.501832 0.184981-18.062039 0.046245-24.437265-0.488877-45.2608-2.180129-61.44-4.003509h-0.052852c-23.822865-2.708645-37.537858-5.741006-37.769083-5.787252a6.011871 6.011871 0 0 0-3.395717 0.211406c-0.805987 0.290684-1.625187 0.568155-2.444387 0.858839a191.937239 191.937239 0 0 0-65.509574-19.066219c-6.3488-0.436026-6.85089 8.852645-0.535122 9.116903 15.161806 0.132129 30.416103 2.087639 45.274012 5.925987 5.754219 1.479845 11.448981 3.256981 17.051252 5.298374-6.87071 2.312258-13.840516 4.426323-20.876387 6.3488a193.337806 193.337806 0 0 0-46.502813-10.83458c-6.342194-0.449239-6.85089 8.839432-0.528516 9.116903 12.572077 0.085884 25.203613 1.473239 37.630348 4.135639-3.256981 0.792774-6.533781 1.552516-9.803974 2.246193-42.09631 8.958348-75.934555 8.139148-103.12671 7.46529a609.233755 609.233755 0 0 1-88.797316-8.733729c-25.619819-5.556026-40.84769-14.01889-45.227767-25.150761-5.271948-13.378065 2.206555-37.115045 5.536206-45.122064a6.190245 6.190245 0 0 0 0.264258-3.963871c-12.030348-43.899871-4.082787-75.505135 4.717007-94.287278 7.134968-15.274116 17.6128-28.711639 28.724851-42.941935 9.546323-12.248361 21.418116-27.482839 40.953394-43.107097 14.032103-11.217755 28.55969-22.831897 50.618632-26.392774 3.171097-0.52191 6.375226-0.839019 9.618993-0.990968-2.114065 4.168671-3.957265 8.462865-5.496567 12.816516a105.148284 105.148284 0 0 0-5.219097 21.953239 227.103381 227.103381 0 0 0-40.860903 9.579355 6.091148 6.091148 0 0 0 3.864774 11.534864 215.139097 215.139097 0 0 1 29.279793-7.551174 217.993084 217.993084 0 0 1 22.362839-2.893626 298.961755 298.961755 0 0 1 41.448878 0.323716h0.171767c22.197677 1.737497 44.197161 5.978839 65.384052 12.618323a5.972232 5.972232 0 0 0 3.105032 0.132129 228.067923 228.067923 0 0 1 41.026065-4.987871c14.864516-0.442632 29.729032 0.594581 44.395355 3.032361a72.981471 72.981471 0 0 1-34.31391 13.576258c-7.002839 0.839019-14.157626 0.640826-21.252955-0.574761a6.091148 6.091148 0 0 0-2.067819 11.997316 87.205161 87.205161 0 0 0 14.719174 1.255226 84.826839 84.826839 0 0 0 48.577239-15.346787 114.529445 114.529445 0 0 1-16.271691 24.120155 123.884181 123.884181 0 0 1-22.243922 19.839174 6.144 6.144 0 0 0-2.602942 4.624516 6.044903 6.044903 0 0 0 2.008361 4.901987c0.171768 0.151948 16.093316 14.613471 23.763407 37.0688 0.673858 1.948903 1.281652 3.963871 1.796954 6.03169 4.307406 16.938942 2.391535 43.444026 2.358504 43.701678a6.091148 6.091148 0 1 0 12.149264 0.91169c0.09249-1.169342 2.087639-28.771097-2.708645-47.612697-5.265342-20.704619-17.156955-36.216568-24.047484-43.873445a134.533781 134.533781 0 0 0 18.676439-17.553342 126.04449 126.04449 0 0 0 25.058271-43.734709 6.124181 6.124181 0 0 0-4.340439-7.848465 241.432774 241.432774 0 0 0-64.029729-6.692335 240.891045 240.891045 0 0 0-41.640465 4.928413 309.201755 309.201755 0 0 0-59.748748-12.056775 186.916335 186.916335 0 0 1 15.908336-43.906477c0.72671-1.426994 1.460026-2.860594 2.219767-4.261161 11.984103-22.058942 26.808981-40.860903 44.316078-56.326607 16.397213-14.494555 35.139716-26.075665 56.148232-34.604593 23.505755-9.51329 70.239794-23.076335 126.183226-11.065807 2.820955 0.607794 5.668335 1.261832 8.522322 1.995149 53.248 13.741419 86.432206 44.712465 101.475097 61.94209 25.256465 28.929652 35.377548 60.270658 40.04831 86.544516 2.312258 13.01471 3.290013 24.800619 4.069574 34.419613l0.066065 0.872052a251.362271 251.362271 0 0 1-1.519484 54.423948 174.264981 174.264981 0 0 1-9.691665 30.786064 181.598142 181.598142 0 0 1-9.817187 19.832568 6.077935 6.077935 0 0 0 5.278555 9.116903 6.077935 6.077935 0 0 0 5.285161-3.058787 188.422606 188.422606 0 0 0 19.77311-49.416258 5.582452 5.582452 0 0 0 0.700284-1.796955c0.231226-1.076852 0.990968-3.759071 3.382503-5.232309a5.067148 5.067148 0 0 1 2.464206-0.918297c0.013213 0 1.552516 0.079277 2.920052 0.977755 1.123097 0.746529 1.070245 7.822039 1.024 11.627355-0.066065 5.727794-0.132129 12.849548 1.255226 20.433755 1.334503 7.247277 3.461781 12.069987 7.022658 20.149677 5.906168 13.384671 12.393703 22.131613 24.192826 37.987097 11.032774 14.844697 16.073497 21.61631 18.313084 24.087122l0.125522 0.132129c6.66591 7.306735 11.138477 14.355819 13.305394 20.949058 0.4096 1.261832 0.772955 2.682219 0.303896 3.626942zM636.427033 322.427871a32.417858 32.417858 0 0 0-9.149936 10.517471c-4.961445 8.971561-5.9392 19.819355-6.256309 30.264155-0.066065 1.849806-0.09249 3.6864-0.132129 5.496568-0.264258 12.591897-0.508697 24.48351-6.903742 29.629935-10.590142 8.522323-19.911845 9.050839-29.319433 1.651613-6.969806-5.476748-9.130116-15.373213-9.724696-22.706374-0.924903-11.515045 1.189161-25.031845 5.463535-37.967278 3.138065-9.53311 7.445471-18.72929 12.545652-26.571148 2.431174-3.726039 5.034116-7.168 7.795613-10.167329 17.659045-19.244594 46.198916-30.706787 71.547871-29.596903 3.944052 0.171768 7.808826 0.640826 11.554683 1.4336 6.243097 1.34111 12.439948 3.428748 18.432 6.289342 19.779716 9.447226 37.485006 27.522477 48.372439 56.049135a160.867097 160.867097 0 0 1 7.683303 27.753703c1.876232 10.048413 3.058787 21.008516 3.455175 32.933162 0.290684 8.984774 0.138735 18.498065-0.528517 28.572903a361.306839 361.306839 0 0 1-2.75489 26.577755l-29.002322-1.2288c0.515303-9.017806 0.713497-17.447639 0.640825-25.348955a261.959019 261.959019 0 0 0-1.796954-28.572903 175.037935 175.037935 0 0 0-4.221523-22.726194c-2.781316-10.702452-6.388439-19.56831-10.590142-26.888258-6.580026-11.482013-14.554013-19.198348-22.924387-24.265497a59.927123 59.927123 0 0 0-17.956336-7.174606 55.976465 55.976465 0 0 0-11.779303-1.426994c-11.363097-0.138735-19.356903 3.699613-24.450477 7.48511v-0.013213zM1022.878026 735.582142a62.464 62.464 0 0 1-9.909677-17.70529 60.462245 60.462245 0 0 1-3.032361-28.103846c0.396387-3.058787-1.995148-5.82689-5.3248-6.210064-3.336258-0.363355-6.368619 1.823381-6.765007 4.901987a70.834374 70.834374 0 0 0 3.567484 32.913342c2.6624 7.412439 6.573419 14.402065 11.627355 20.77729 0.885265 1.11649 2.114065 1.829987 3.455174 2.133884a6.46111 6.46111 0 0 0 5.040723-0.91169c2.721858-1.816774 3.316439-5.318194 1.341109-7.808826v0.013213z" fill="#000000" p-id="20090"></path><path d="M984.659704 748.154219a6.025084 6.025084 0 0 0 3.719432 2.484026 6.513961 6.513961 0 0 0 4.657548-0.667251c2.860594-1.631794 3.745858-5.073755 1.981936-7.703123a45.914839 45.914839 0 0 1-7.399226-18.683045 45.287226 45.287226 0 0 1 3.072-24.496723c1.222194-2.873806-0.350142-6.117574-3.4816-7.227458-3.124852-1.123097-6.672516 0.31711-7.87489 3.197523a55.791484 55.791484 0 0 0-3.772284 30.112206 56.610684 56.610684 0 0 0 9.10369 22.970632v0.013213zM500.446439 777.916284c0-2.114065-0.257652-4.168671-0.700284-6.130787-1.242013 1.288258-3.633548 2.180129-6.408258 2.180129-4.062968 0-7.352981-1.876232-7.35298-4.195097 0-2.312258 3.290013-4.181884 7.35298-4.181884 1.796955 0 3.415535 0.376568 4.690581 0.990968-3.620335-8.059871-10.94689-13.569652-19.409755-13.569652-12.056774 0-21.814503 11.164903-21.814503 24.939355s9.777548 24.932748 21.814503 24.932749c12.043561 0 21.814503-11.158297 21.814503-24.932749l0.013213-0.033032zM386.775833 769.757316c-4.069574 0-7.352981-1.869626-7.352981-4.18849 0-2.312258 3.283406-4.181884 7.352981-4.181884 1.73089 0 3.303226 0.350142 4.565058 0.924903-3.963871-6.328981-10.424981-10.484439-17.771355-10.484439-12.050168 0-21.807897 11.158297-21.807897 24.932749s9.777548 24.939355 21.814503 24.939355c12.043561 0 21.814503-11.164903 21.814504-24.939355 0-3.455174-0.621006-6.7584-1.737497-9.757729-1.030606 1.611974-3.712826 2.77471-6.897136 2.774709l0.01982-0.019819zM422.688504 802.994374c-0.264258-2.787923-5.311587-4.875561-9.394374-4.842529-3.884594 0.026426-8.832826 1.995148-9.136723 4.842529-0.224619 2.14049 2.272619 4.016723 4.657548 5.780645 1.11649 0.825806 1.981935 1.261832 2.669007 1.506271 0 0.019819-0.019819 0.033032-0.01982 0.066065l-2.034787 13.787664c-2.497239 1.479845-7.630452 4.492387-8.258064 4.954839a2.259406 2.259406 0 0 0-0.482271 3.144671c0.72671 1.024 2.16031 1.255226 3.18431 0.528516 0.436026-0.29729 3.831742-2.325471 6.73858-4.043148l7.504929 6.791432a2.299045 2.299045 0 0 0 3.230555-0.151948 2.272619 2.272619 0 0 0-0.165161-3.230555l-8.707303-7.888103 1.988541-13.470555c0.033032-0.165161 0-0.330323-0.026425-0.502091 0.594581-0.211406 1.202374-0.528516 1.902658-0.971148 3.699613-2.34529 6.540387-4.142245 6.342193-6.342194v0.039639z" fill="#000000" p-id="20091"></path><path d="M531.140013 831.507819q0 0.601187-0.112309 1.208981-0.11231 0.601187-0.330323 1.195768-0.231226 0.594581-0.561548 1.175948t-0.772955 1.142916q-0.436026 0.561548-0.977755 1.096671-0.541729 0.528516-1.175948 1.037213-0.640826 0.50209-1.367536 0.971149-0.72671 0.469058-1.539303 0.898477-0.805987 0.429419-1.691252 0.812593-0.891871 0.383174-1.8432 0.72671-0.951329 0.330323-1.962116 0.621007-1.010787 0.284077-2.074426 0.515303-1.057032 0.231226-2.153703 0.4096-1.096671 0.178374-2.219768 0.29729-1.123097 0.11231-2.266012 0.171768-1.142916 0.066065-2.292439 0.066064-1.142916 0-2.285832-0.066064-1.13631-0.059458-2.266013-0.171768-1.123097-0.118916-2.219768-0.29729t-2.153703-0.4096q-1.057032-0.231226-2.074426-0.515303-1.010787-0.290684-1.962116-0.627613-0.951329-0.330323-1.8432-0.720104-0.885265-0.383174-1.691252-0.812593-0.812594-0.429419-1.539303-0.898477-0.72671-0.462452-1.367536-0.971149-0.634219-0.50209-1.175948-1.037213-0.541729-0.535123-0.977755-1.096671-0.442632-0.561548-0.772955-1.142916-0.330323-0.581368-0.554942-1.175948t-0.336929-1.195768q-0.11231-0.607794-0.112309-1.208981 0-0.607794 0.112309-1.215587 0.11231-0.594581 0.330323-1.195767 0.231226-0.594581 0.561548-1.175949t0.772955-1.142916q0.436026-0.554942 0.977755-1.090065 0.541729-0.535123 1.175948-1.043819 0.640826-0.50209 1.367536-0.971148 0.72671-0.462452 1.539303-0.898478 0.805987-0.429419 1.691252-0.812593 0.891871-0.383174 1.8432-0.72671 0.951329-0.330323 1.962116-0.621006 1.010787-0.284077 2.074426-0.515304 1.057032-0.231226 2.153703-0.4096 1.096671-0.171768 2.219768-0.290683t2.266013-0.178375q1.142916-0.066065 2.285832-0.066064 1.149523 0 2.292439 0.066064 1.13631 0.059458 2.266012 0.178375 1.123097 0.118916 2.219768 0.290683 1.096671 0.178374 2.153703 0.4096t2.074426 0.515304q1.010787 0.290684 1.962116 0.627613 0.951329 0.330323 1.8432 0.720103 0.885265 0.383174 1.691252 0.812593 0.812594 0.429419 1.539303 0.898478 0.72671 0.469058 1.367536 0.971148 0.634219 0.508697 1.175948 1.043819 0.541729 0.528516 0.977755 1.090065 0.442632 0.561548 0.772955 1.142916 0.330323 0.581368 0.554942 1.175949t0.336929 1.195767q0.11231 0.607794 0.112309 1.215587zM378.398852 824.974039q0 0.607794-0.11231 1.20898t-0.330322 1.202375q-0.224619 0.594581-0.561549 1.169341-0.330323 0.581368-0.766348 1.142917-0.442632 0.561548-0.984361 1.096671-0.541729 0.528516-1.175949 1.037212-0.634219 0.508697-1.360929 0.977755-0.72671 0.462452-1.539303 0.891871-0.812594 0.429419-1.697858 0.8192-0.885265 0.383174-1.8432 0.720104-0.951329 0.330323-1.962116 0.621006-1.010787 0.284077-2.067819 0.52191-1.057032 0.231226-2.16031 0.402993-1.096671 0.178374-2.219768 0.297291t-2.266013 0.178374q-1.142916 0.059458-2.285832 0.059458-1.149523 0-2.285832-0.066065-1.142916-0.052852-2.266013-0.171767-1.123097-0.118916-2.226374-0.297291-1.096671-0.171768-2.153704-0.402993-1.057032-0.237832-2.067819-0.52191-1.010787-0.284077-1.968722-0.621006-0.951329-0.336929-1.836594-0.72671-0.885265-0.383174-1.697858-0.812594t-1.539303-0.891871q-0.72671-0.469058-1.360929-0.977755-0.640826-0.50209-1.182555-1.037212-0.535123-0.535123-0.977755-1.096671-0.436026-0.561548-0.772955-1.142917-0.330323-0.574761-0.554942-1.169341t-0.330322-1.202375q-0.118916-0.601187-0.118917-1.20898t0.11231-1.208981q0.11231-0.607794 0.336929-1.202374 0.224619-0.594581 0.554942-1.175949 0.330323-0.574761 0.772955-1.136309 0.442632-0.561548 0.977755-1.096671 0.541729-0.535123 1.182555-1.037213 0.634219-0.508697 1.360929-0.977755 0.72671-0.462452 1.539303-0.898477 0.812594-0.422813 1.697858-0.812594 0.885265-0.383174 1.836594-0.720103 0.957935-0.330323 1.968722-0.621007 1.010787-0.284077 2.067819-0.521909 1.057032-0.231226 2.153704-0.402994 1.096671-0.178374 2.226374-0.29729 1.123097-0.118916 2.266013-0.178374 1.13631-0.059458 2.285832-0.059458 1.142916 0 2.285832 0.066064 1.142916 0.052852 2.266013 0.171768 1.123097 0.118916 2.219768 0.29729 1.096671 0.171768 2.16031 0.402994 1.057032 0.237832 2.067819 0.521909 1.010787 0.284077 1.962116 0.621007 0.957935 0.336929 1.8432 0.72671 0.885265 0.383174 1.697858 0.805987 0.805987 0.429419 1.539303 0.898477 0.72671 0.469058 1.360929 0.977755 0.634219 0.50209 1.175949 1.037213 0.541729 0.535123 0.984361 1.096671 0.436026 0.561548 0.766348 1.136309 0.330323 0.581368 0.561549 1.175949 0.218013 0.594581 0.330322 1.202374 0.11231 0.601187 0.11231 1.208981z" fill="#FFBBC6" p-id="20092"></path><path d="M544.293459 823.560258c-6.302555 0.8192-4.961445 10.015381 1.294864 9.037626a188.964335 188.964335 0 0 1 91.690942 4.968051c-28.850374-12.136052-61.096465-17.051252-92.985806-14.005677z" fill="#000000" p-id="20093"></path><path d="M57.014801 937.825445c-0.105703-0.165161-0.224619-0.31711-0.330323-0.469058a159.083355 159.083355 0 0 1-15.908336-29.748852 143.538374 143.538374 0 0 0-21.39169 25.170581l-0.627613-0.416206a81.041342 81.041342 0 0 0 16.978581 30.462348 154.247432 154.247432 0 0 1 21.266168-24.998813h0.013213zM111.518026 921.038452a131.831742 131.831742 0 0 0-33.719329 19.000154c18.52449 22.144826 40.035097 34.261058 53.631174 40.259717a78.848 78.848 0 0 0 25.956749-22.726194c-14.600258-8.403406-30.951226-20.228955-45.855381-36.533677h-0.013213zM98.10693 875.057548a158.204697 158.204697 0 0 0 18.253625 28.242581c21.292594-6.428077 40.933574-7.154787 55.685781-6.150606v-0.046246a81.668955 81.668955 0 0 0-9.757729-27.965109l-0.244439 1.611974c-13.701781-2.008361-37.418942-3.375897-63.937238 4.307406zM127.730259 915.984516a178.658271 178.658271 0 0 0 37.432154 28.526658 81.014916 81.014916 0 0 0 7.7824-32.014864 142.943794 142.943794 0 0 0-45.227767 3.4816h0.013213zM53.103781 897.314684a144.522735 144.522735 0 0 0 15.558194 30.554839 148.579097 148.579097 0 0 1 18.894451-12.420129c4.59809-2.543484 9.182968-4.736826 13.728207-6.672517a171.477058 171.477058 0 0 1-17.659045-28.665393 141.127019 141.127019 0 0 0-30.521807 17.2032zM63.105949 872.976516a158.290581 158.290581 0 0 1 14.44831-6.837677 171.886658 171.886658 0 0 1-9.0112-33.250271 77.275665 77.275665 0 0 0-24.542968 13.873548 149.570065 149.570065 0 0 0 4.41311 35.2256c4.723613-3.256981 9.6256-6.276129 14.692748-8.997987v-0.013213zM66.296865 950.034168a140.598503 140.598503 0 0 0-19.264413 23.294348c16.436852 12.60511 37.597316 18.768929 59.411819 15.406245 1.889445-0.290684 3.745858-0.667252 5.589059-1.096671a163.859819 163.859819 0 0 1-45.729859-37.603922zM35.352246 892.003097a165.088619 165.088619 0 0 1-5.741007-29.458168 80.902606 80.902606 0 0 0-14.250116 50.010839 158.528413 158.528413 0 0 1 19.991123-20.565884v0.013213zM151.480452 854.346323c-16.945548-18.398968-41.990606-28.460594-68.112516-24.959175 1.75071 10.900645 4.584877 21.470968 8.50911 31.638297 22.924387-6.956594 44.025394-7.729548 59.603406-6.685729z" fill="#FFDAA4" p-id="20094"></path><path d="M432.657639 923.185548c-15.36-10.735484-30.297187-15.029677-44.269832-12.578683-12.710813 2.180129-19.502245 8.905497-26.690065 16.027251-3.937445 3.917626-8.033445 7.967381-13.728206 12.023742-19.350297 13.781058-49.535174 22.428903-73.3184 10.695845-9.698271-4.783071-15.04289-11.237574-20.704619-18.055432-6.791432-8.178787-13.807484-16.648258-27.46302-20.308232-12.347458-3.323045-25.256465-1.387355-38.515613 5.674942a96.480619 96.480619 0 0 0-0.878658-21.893781c-8.073084-52.171148-56.333213-88.15649-107.586064-80.228748-51.266065 7.934348-86.379355 56.835303-78.312878 108.986632 8.066477 52.171148 56.326606 88.163097 107.586065 80.248568 36.811148-5.694761 65.311381-32.536774 75.445677-66.526968 13.899974-10.748697 26.782555-14.63329 38.304207-11.541471 8.984774 2.404748 13.701781 8.112723 19.700438 15.313755 6.137394 7.386013 13.080774 15.756387 25.679278 21.986271 14.111381 6.969806 29.861161 8.277884 44.94369 5.932593a105.372903 105.372903 0 0 0 43.946116-17.870451c6.698942-4.763252 11.435768-9.467045 15.624258-13.609291 6.362013-6.302555 10.563716-10.477832 18.537704-11.845367 0.151948-0.033032 0.310503-0.046245 0.462451-0.072671 9.803974-1.52609 20.744258 1.882839 32.530168 10.121083a7.610632 7.610632 0 0 0 8.720516-12.466374l-0.013213-0.019819z m-270.613471-52.435406l0.244439-1.611974a81.675561 81.675561 0 0 1 9.757729 27.965109v0.046246c-14.752206-1.004181-34.393187-0.277471-55.692387 6.144a159.658116 159.658116 0 0 1-16.344361-24.576c-0.660645-1.222194-1.281652-2.444387-1.902658-3.659975 26.518297-7.683303 50.235458-6.315768 63.937238-4.307406z m-10.570322-16.410426c-15.571406-1.037213-36.665806-0.270865-59.590194 6.685729a157.464774 157.464774 0 0 1-8.515716-31.638297c26.108697-3.501419 51.153755 6.560206 68.112516 24.952568z m-67.861471 25.758555a174.086606 174.086606 0 0 0 17.659045 28.672c-4.558452 1.929084-9.136723 4.135639-13.734813 6.659303a148.546065 148.546065 0 0 0-18.894452 12.420129 144.165987 144.165987 0 0 1-15.551587-30.548232 139.977497 139.977497 0 0 1 30.521807-17.2032z m-15.089136-47.209703c1.902658 11.429161 4.921806 22.547819 9.0112 33.250271-4.776465 1.981935-9.605781 4.228129-14.441703 6.837677-5.073755 2.721858-9.955923 5.7344-14.692748 8.991381a149.570065 149.570065 0 0 1-4.41311-35.2256 77.401187 77.401187 0 0 1 24.536361-13.873549v0.01982z m-38.912 29.662967c0.885265 8.674271 2.622761 18.702865 5.747613 29.451562a157.550658 157.550658 0 0 0-19.997729 20.565884 80.995097 80.995097 0 0 1 14.250116-50.010839v-0.013213z m-10.8544 69.797162l0.627613 0.4096a142.897548 142.897548 0 0 1 21.385084-25.170581 159.089961 159.089961 0 0 0 15.908335 29.748852c0.11231 0.171768 0.231226 0.323716 0.33693 0.475664a152.833652 152.833652 0 0 0-21.266168 24.998813 81.034735 81.034735 0 0 1-16.978581-30.462348h-0.013213z m87.67422 56.372851c-21.814503 3.375897-42.961755-2.787923-59.418426-15.406245a137.903071 137.903071 0 0 1 19.271019-23.294348 163.866426 163.866426 0 0 0 45.736465 37.603922c-1.8432 0.422813-3.6864 0.805987-5.589058 1.096671z m24.972387-8.436438c-13.602684-5.998658-35.11329-18.11489-53.637781-40.266323a133.456929 133.456929 0 0 1 17.123923-11.283819c5.575845-3.072 11.131871-5.615484 16.595406-7.716336 14.904155 16.304723 31.255123 28.136877 45.848774 36.533678a78.841394 78.841394 0 0 1-25.950142 22.726193h0.013213z m33.745755-35.806968a177.237884 177.237884 0 0 1-37.432155-28.526658 142.045316 142.045316 0 0 1 45.227767-3.488207 81.021523 81.021523 0 0 1-7.7824 32.014865h-0.013212z" fill="#000000" p-id="20095"></path></svg>