<?xml version="1.0" standalone="no"?><!DOCTYPE svg PUBLIC "-//W3C//DTD SVG 1.1//EN" "http://www.w3.org/Graphics/SVG/1.1/DTD/svg11.dtd"><svg t="1740063933653" class="icon default_cursor_cs" viewBox="0 0 1024 1024" version="1.1" xmlns="http://www.w3.org/2000/svg" p-id="8960" xmlns:xlink="http://www.w3.org/1999/xlink" width="200" height="200"><path d="M512 1024c112.128 0 215.04-45.056 295.424-121.856 80.384-79.36 121.856-183.296 121.856-295.424v-189.44c0-112.128-41.472-218.624-121.856-295.424C728.576 41.472 624.128 0 512 0S296.96 45.056 216.576 121.856C136.192 200.704 94.72 305.152 94.72 417.28v189.44c0 112.128 45.056 215.04 121.856 295.424C295.424 982.528 399.872 1024 512 1024zM157.696 429.568c0-94.72 38.912-183.296 102.912-250.368C328.704 110.08 417.28 74.24 512 74.24s183.296 38.912 253.44 103.936c68.608 67.072 103.936 156.16 103.936 254.464v159.744c0 94.72-38.912 183.296-103.936 251.392-68.608 68.608-157.696 103.936-251.392 103.936s-183.296-38.912-251.392-103.936C194.048 775.168 158.72 686.08 158.72 592.384l-1.024-162.816z" fill="#ffffff" p-id="8961" class="default_pointer_cs"></path><path d="M323.584 825.344c52.736 43.008 119.296 66.56 188.416 66.56 66.048 0 130.56-22.528 188.416-65.536L578.56 704.512H444.928l-121.344 120.832z m329.728-173.056l104.96 106.496c30.72-47.104 47.104-103.424 47.104-160.256v-11.264h1.024v-28.672h-98.304l-54.784 93.696z m-199.68-38.912h117.248l58.368-101.376-58.368-101.376H453.632L394.752 512l58.88 101.376zM707.584 465.92h98.304v-38.4c0-56.32-16.384-111.104-47.104-160.256l-106.496 104.448L707.584 465.92z m-489.472-0.512h98.304l55.296-93.696L266.24 266.24c-30.72 47.104-47.104 103.936-47.104 160.256v11.264h-1.024v27.648z m227.84-143.872h132.096l122.368-122.368c-52.736-43.008-119.296-66.56-188.928-66.56-67.072 0-131.584 23.04-186.88 67.072l121.344 121.856z m-226.816 233.472v39.424c0 57.344 16.384 113.664 46.08 160.256l106.496-106.496-55.296-93.696-97.28 0.512z" fill="#ffffff" p-id="8962"></path></svg>