<?xml version="1.0" encoding="UTF-8"?>
<svg width="300" height="400" viewBox="0 0 300 400" fill="none" xmlns="http://www.w3.org/2000/svg">
  <!-- 花瓣边框装饰 -->
  <g id="frame">
    <!-- 左上角花瓣 -->
    <path d="M0 20C0 8.95431 8.95431 0 20 0H50C61.0457 0 70 8.95431 70 20V50C70 61.0457 61.0457 70 50 70H20C8.95431 70 0 61.0457 0 50V20Z" fill="currentColor" fill-opacity="0.1"/>
    <!-- 右上角花瓣 -->
    <path d="M230 0H260C271.046 0 280 8.95431 280 20V50C280 61.0457 271.046 70 260 70H230C218.954 70 210 61.0457 210 50V20C210 8.95431 218.954 0 230 0Z" fill="currentColor" fill-opacity="0.1"/>
    <!-- 左下角花瓣 -->
    <path d="M20 330H50C61.0457 330 70 338.954 70 350V380C70 391.046 61.0457 400 50 400H20C8.95431 400 0 391.046 0 380V350C0 338.954 8.95431 330 20 330Z" fill="currentColor" fill-opacity="0.1"/>
    <!-- 右下角花瓣 -->
    <path d="M230 330H260C271.046 330 280 338.954 280 350V380C280 391.046 271.046 400 260 400H230C218.954 400 210 391.046 210 380V350C210 338.954 218.954 330 230 330Z" fill="currentColor" fill-opacity="0.1"/>
  </g>
</svg>
